<?xml version="1.0" encoding="UTF-8"?>
<svg xmlns="http://www.w3.org/2000/svg" xmlns:xlink="http://www.w3.org/1999/xlink" viewBox="0 0 18 18" width="18px" height="18px">
<g id="surface775615">
<path style=" stroke:none;fill-rule:nonzero;fill:rgb(76.47059%,80.000001%,87.450981%);fill-opacity:1;" d="M 7.867188 1.5 C 7.507812 1.5 7.203125 1.753906 7.132812 2.105469 L 6.882812 3.390625 C 6.265625 3.625 5.695312 3.949219 5.199219 4.359375 L 3.964844 3.9375 C 3.625 3.820312 3.25 3.960938 3.070312 4.269531 L 1.941406 6.230469 C 1.761719 6.542969 1.824219 6.9375 2.097656 7.171875 L 3.085938 8.03125 C 3.035156 8.347656 3 8.667969 3 9 C 3 9.332031 3.035156 9.652344 3.085938 9.96875 L 2.097656 10.828125 C 1.824219 11.0625 1.761719 11.457031 1.941406 11.769531 L 3.070312 13.730469 C 3.25 14.042969 3.625 14.183594 3.964844 14.066406 L 5.199219 13.640625 C 5.695312 14.050781 6.265625 14.375 6.882812 14.609375 L 7.132812 15.894531 C 7.203125 16.246094 7.507812 16.5 7.867188 16.5 L 10.132812 16.5 C 10.492188 16.5 10.796875 16.246094 10.867188 15.894531 L 11.117188 14.609375 C 11.734375 14.375 12.304688 14.050781 12.804688 13.640625 L 14.035156 14.0625 C 14.375 14.179688 14.75 14.042969 14.929688 13.730469 L 16.0625 11.769531 C 16.238281 11.457031 16.175781 11.0625 15.902344 10.828125 L 14.914062 9.96875 C 14.964844 9.652344 15 9.332031 15 9 C 15 8.667969 14.964844 8.347656 14.914062 8.03125 L 15.902344 7.171875 C 16.175781 6.9375 16.238281 6.542969 16.0625 6.230469 L 14.929688 4.269531 C 14.75 3.957031 14.375 3.816406 14.035156 3.933594 L 12.804688 4.359375 C 12.304688 3.949219 11.734375 3.625 11.117188 3.394531 L 10.867188 2.105469 C 10.796875 1.753906 10.492188 1.5 10.132812 1.5 Z M 9 6 C 10.65625 6 12 7.34375 12 9 C 12 10.65625 10.65625 12 9 12 C 7.34375 12 6 10.65625 6 9 C 6 7.34375 7.34375 6 9 6 Z M 9 6 "/>
</g>
</svg>
